<svg width="24" height="24" viewBox="0 0 24 24" fill="none" xmlns="http://www.w3.org/2000/svg">
<rect width="24" height="24" rx="4" fill="white"/>
<rect width="24" height="24" rx="4" fill="url(#paint0_linear_766_784)"/>
<path d="M4.50004 16.2857C4.50004 15.694 4.97973 15.2143 5.57147 15.2143H12C12.5918 15.2143 13.0715 15.694 13.0715 16.2857V18.4286C13.0715 19.0203 12.5918 19.5 12 19.5H5.57147C4.97973 19.5 4.50004 19.0203 4.50004 18.4286V16.2857Z" fill="white"/>
<path d="M14.1429 10.9286C14.1429 10.3368 14.6226 9.85714 15.2143 9.85714H18.4286C19.0203 9.85714 19.5 10.3368 19.5 10.9286V18.4286C19.5 19.0203 19.0203 19.5 18.4286 19.5H15.2143C14.6226 19.5 14.1429 19.0203 14.1429 18.4286V10.9286Z" fill="white"/>
<path d="M14.1429 5.57143C14.1429 4.97969 14.6226 4.5 15.2143 4.5H18.4286C19.0203 4.5 19.5 4.97969 19.5 5.57143V7.71429C19.5 8.30602 19.0203 8.78571 18.4286 8.78571H15.2143C14.6226 8.78571 14.1429 8.30602 14.1429 7.71429V5.57143Z" fill="white"/>
<path d="M4.50004 5.57143C4.50004 4.97969 4.97973 4.5 5.57147 4.5H12C12.5918 4.5 13.0715 4.97969 13.0715 5.57143V13.0714C13.0715 13.6632 12.5918 14.1429 12 14.1429H5.57147C4.97973 14.1429 4.50004 13.6632 4.50004 13.0714V5.57143Z" fill="white"/>
<defs>
<linearGradient id="paint0_linear_766_784" x1="5.1113e-08" y1="7.71429" x2="13.7143" y2="7.71429" gradientUnits="userSpaceOnUse">
<stop stop-color="#81B8EB"/>
<stop offset="1" stop-color="#1B4DFF"/>
</linearGradient>
</defs>
</svg>
