<svg width="106" height="30" viewBox="0 0 106 30" fill="none" xmlns="http://www.w3.org/2000/svg">
<rect x="3" y="0.344971" width="29.31" height="29.31" rx="5.86" fill="white"/>
<rect x="3" y="0.344971" width="29.31" height="29.31" rx="5.86" fill="url(#paint0_linear_764_601)"/>
<path d="M8.49567 20.2339C8.49567 19.5113 9.0815 18.9255 9.80416 18.9255H17.655C18.3777 18.9255 18.9635 19.5113 18.9635 20.2339V22.8509C18.9635 23.5736 18.3777 24.1594 17.655 24.1594H9.80416C9.0815 24.1594 8.49567 23.5736 8.49567 22.8509V20.2339Z" fill="white"/>
<path d="M20.272 13.6915C20.272 12.9689 20.8578 12.383 21.5805 12.383H25.5059C26.2286 12.383 26.8144 12.9689 26.8144 13.6915V22.8509C26.8144 23.5736 26.2286 24.1594 25.5059 24.1594H21.5805C20.8578 24.1594 20.272 23.5736 20.272 22.8509V13.6915Z" fill="white"/>
<path d="M20.272 7.14912C20.272 6.42646 20.8578 5.84064 21.5805 5.84064H25.5059C26.2286 5.84064 26.8144 6.42646 26.8144 7.14912V9.76608C26.8144 10.4887 26.2286 11.0746 25.5059 11.0746H21.5805C20.8578 11.0746 20.272 10.4887 20.272 9.76608V7.14912Z" fill="white"/>
<path d="M8.49567 7.14912C8.49567 6.42646 9.0815 5.84064 9.80416 5.84064H17.655C18.3777 5.84064 18.9635 6.42646 18.9635 7.14912V16.3085C18.9635 17.0311 18.3777 17.617 17.655 17.617H9.80416C9.0815 17.617 8.49567 17.0311 8.49567 16.3085V7.14912Z" fill="white"/>
<path d="M38.31 23.2738V6.72624H45.4495C46.6771 6.72624 47.7513 6.96863 48.672 7.45342C49.5927 7.93821 50.3088 8.61961 50.8203 9.49762C51.3318 10.3756 51.5876 11.4018 51.5876 12.576C51.5876 13.7611 51.3237 14.7872 50.7961 15.6545C50.2738 16.5217 49.5389 17.1896 48.5912 17.6583C47.649 18.1269 46.5479 18.3612 45.288 18.3612H41.0237V14.8707H44.3834C44.9111 14.8707 45.3607 14.7792 45.7322 14.596C46.1091 14.4075 46.3971 14.1408 46.5964 13.7961C46.801 13.4514 46.9033 13.0447 46.9033 12.576C46.9033 12.102 46.801 11.698 46.5964 11.3641C46.3971 11.0247 46.1091 10.7662 45.7322 10.5884C45.3607 10.4053 44.9111 10.3137 44.3834 10.3137H42.8005V23.2738H38.31Z" fill="white"/>
<path d="M55.4662 23.2738H50.6204L56.08 6.72624H62.2181L67.6777 23.2738H62.8319L59.2137 11.2833H59.0845L55.4662 23.2738ZM54.5617 16.7452H63.6718V20.1065H54.5617V16.7452Z" fill="white"/>
<path d="M83.9355 12.9316H79.3804C79.3481 12.5545 79.2619 12.2125 79.1219 11.9054C78.9873 11.5984 78.7989 11.3344 78.5566 11.1136C78.3197 10.8874 78.0316 10.715 77.6924 10.5965C77.3532 10.4726 76.9682 10.4106 76.5375 10.4106C75.7837 10.4106 75.1457 10.5938 74.6234 10.9601C74.1065 11.3264 73.7135 11.8516 73.4442 12.5356C73.1804 13.2197 73.0485 14.0412 73.0485 15C73.0485 16.0127 73.1831 16.8611 73.4523 17.5452C73.7269 18.2239 74.1227 18.7356 74.6395 19.0803C75.1564 19.4197 75.7783 19.5894 76.5052 19.5894C76.9198 19.5894 77.2913 19.5382 77.6197 19.4358C77.9482 19.3281 78.2335 19.1746 78.4758 18.9753C78.7181 18.776 78.9146 18.5363 79.0654 18.2562C79.2215 17.9707 79.3265 17.6502 79.3804 17.2947L83.9355 17.327C83.8816 18.0273 83.6851 18.741 83.3459 19.4682C83.0067 20.19 82.5248 20.8579 81.9002 21.472C81.281 22.0806 80.5138 22.5708 79.5984 22.9425C78.6831 23.3142 77.6197 23.5 76.4083 23.5C74.8899 23.5 73.5277 23.1741 72.3216 22.5223C71.1209 21.8706 70.1706 20.9118 69.4707 19.6459C68.7761 18.3801 68.4288 16.8314 68.4288 15C68.4288 13.1578 68.7842 11.6065 69.4949 10.346C70.2056 9.08016 71.164 8.12405 72.3701 7.47766C73.5762 6.82589 74.9222 6.5 76.4083 6.5C77.4528 6.5 78.4139 6.64274 79.2915 6.92823C80.1692 7.21372 80.9391 7.63118 81.6014 8.18061C82.2636 8.72465 82.7967 9.39528 83.2005 10.1925C83.6043 10.9897 83.8493 11.9027 83.9355 12.9316Z" fill="white"/>
<path d="M89.7585 23.2738H84.9127L90.3723 6.72624H96.5104L101.97 23.2738H97.1242L93.506 11.2833H93.3767L89.7585 23.2738ZM88.854 16.7452H97.9641V20.1065H88.854V16.7452Z" fill="white"/>
<defs>
<linearGradient id="paint0_linear_764_601" x1="3" y1="9.76604" x2="19.7486" y2="9.76604" gradientUnits="userSpaceOnUse">
<stop stop-color="#81B8EB"/>
<stop offset="1" stop-color="#1B4DFF"/>
</linearGradient>
</defs>
</svg>
