<svg width="106" height="30" viewBox="0 0 106 30" fill="none" xmlns="http://www.w3.org/2000/svg">
<rect x="3" y="0.344971" width="29.31" height="29.31" rx="5.86" fill="white"/>
<rect x="3" y="0.344971" width="29.31" height="29.31" rx="5.86" fill="url(#paint0_linear_764_593)"/>
<path d="M8.49567 20.2339C8.49567 19.5113 9.0815 18.9255 9.80416 18.9255H17.655C18.3777 18.9255 18.9635 19.5113 18.9635 20.2339V22.8509C18.9635 23.5736 18.3777 24.1594 17.655 24.1594H9.80416C9.0815 24.1594 8.49567 23.5736 8.49567 22.8509V20.2339Z" fill="white"/>
<path d="M20.272 13.6915C20.272 12.9689 20.8578 12.383 21.5805 12.383H25.5059C26.2286 12.383 26.8144 12.9689 26.8144 13.6915V22.8509C26.8144 23.5736 26.2286 24.1594 25.5059 24.1594H21.5805C20.8578 24.1594 20.272 23.5736 20.272 22.8509V13.6915Z" fill="white"/>
<path d="M20.272 7.14912C20.272 6.42646 20.8578 5.84064 21.5805 5.84064H25.5059C26.2286 5.84064 26.8144 6.42646 26.8144 7.14912V9.76608C26.8144 10.4887 26.2286 11.0746 25.5059 11.0746H21.5805C20.8578 11.0746 20.272 10.4887 20.272 9.76608V7.14912Z" fill="white"/>
<path d="M8.49567 7.14912C8.49567 6.42646 9.0815 5.84064 9.80416 5.84064H17.655C18.3777 5.84064 18.9635 6.42646 18.9635 7.14912V16.3085C18.9635 17.0311 18.3777 17.617 17.655 17.617H9.80416C9.0815 17.617 8.49567 17.0311 8.49567 16.3085V7.14912Z" fill="white"/>
<path d="M40.31 23.2738V6.72624H47.4495C48.6771 6.72624 49.7513 6.96863 50.672 7.45342C51.5927 7.93821 52.3088 8.61961 52.8203 9.49762C53.3318 10.3756 53.5876 11.4018 53.5876 12.576C53.5876 13.7611 53.3237 14.7872 52.7961 15.6545C52.2738 16.5217 51.5389 17.1896 50.5912 17.6583C49.649 18.1269 48.5479 18.3612 47.288 18.3612H43.0237V14.8707H46.3834C46.9111 14.8707 47.3607 14.7792 47.7322 14.596C48.1091 14.4075 48.3971 14.1408 48.5964 13.7961C48.801 13.4514 48.9033 13.0447 48.9033 12.576C48.9033 12.102 48.801 11.698 48.5964 11.3641C48.3971 11.0247 48.1091 10.7662 47.7322 10.5884C47.3607 10.4053 46.9111 10.3137 46.3834 10.3137H44.8005V23.2738H40.31Z" fill="#1B4DFF"/>
<path d="M57.4662 23.2738H52.6204L58.08 6.72624H64.2181L69.6777 23.2738H64.8319L61.2137 11.2833H61.0845L57.4662 23.2738ZM56.5617 16.7452H65.6718V20.1065H56.5617V16.7452Z" fill="#1B4DFF"/>
<path d="M85.9355 12.9316H81.3804C81.3481 12.5545 81.2619 12.2125 81.1219 11.9054C80.9873 11.5984 80.7989 11.3344 80.5566 11.1136C80.3197 10.8874 80.0316 10.715 79.6924 10.5965C79.3532 10.4726 78.9682 10.4106 78.5375 10.4106C77.7837 10.4106 77.1457 10.5938 76.6234 10.9601C76.1065 11.3264 75.7135 11.8516 75.4442 12.5356C75.1804 13.2197 75.0485 14.0412 75.0485 15C75.0485 16.0127 75.1831 16.8611 75.4523 17.5452C75.7269 18.2239 76.1227 18.7356 76.6395 19.0803C77.1564 19.4197 77.7783 19.5894 78.5052 19.5894C78.9198 19.5894 79.2913 19.5382 79.6197 19.4358C79.9482 19.3281 80.2335 19.1746 80.4758 18.9753C80.7181 18.776 80.9146 18.5363 81.0654 18.2562C81.2215 17.9707 81.3265 17.6502 81.3804 17.2947L85.9355 17.327C85.8816 18.0273 85.6851 18.741 85.3459 19.4682C85.0067 20.19 84.5248 20.8579 83.9002 21.472C83.281 22.0806 82.5138 22.5708 81.5984 22.9425C80.6831 23.3142 79.6197 23.5 78.4083 23.5C76.8899 23.5 75.5277 23.1741 74.3216 22.5223C73.1209 21.8706 72.1706 20.9118 71.4707 19.6459C70.7761 18.3801 70.4288 16.8314 70.4288 15C70.4288 13.1578 70.7842 11.6065 71.4949 10.346C72.2056 9.08016 73.164 8.12405 74.3701 7.47766C75.5762 6.82589 76.9222 6.5 78.4083 6.5C79.4528 6.5 80.4139 6.64274 81.2915 6.92823C82.1692 7.21372 82.9391 7.63118 83.6014 8.18061C84.2636 8.72465 84.7967 9.39528 85.2005 10.1925C85.6043 10.9897 85.8493 11.9027 85.9355 12.9316Z" fill="#1B4DFF"/>
<path d="M91.7585 23.2738H86.9127L92.3723 6.72624H98.5104L103.97 23.2738H99.1242L95.506 11.2833H95.3767L91.7585 23.2738ZM90.854 16.7452H99.9641V20.1065H90.854V16.7452Z" fill="#1B4DFF"/>
<defs>
<linearGradient id="paint0_linear_764_593" x1="3" y1="9.76604" x2="19.7486" y2="9.76604" gradientUnits="userSpaceOnUse">
<stop stop-color="#81B8EB"/>
<stop offset="1" stop-color="#1B4DFF"/>
</linearGradient>
</defs>
</svg>
