<svg width="446" height="164" viewBox="0 0 446 164" fill="none" xmlns="http://www.w3.org/2000/svg">
<rect x="23.3281" y="23" width="117.258" height="117.258" rx="23.4515" fill="white"/>
<rect x="23.3281" y="23" width="117.258" height="117.258" rx="23.4515" fill="url(#paint0_linear_236_1402)"/>
<path d="M45.3141 102.568C45.3141 99.6768 47.6578 97.3331 50.5488 97.3331H81.9571C84.8482 97.3331 87.1918 99.6768 87.1918 102.568V113.037C87.1918 115.928 84.8482 118.272 81.9571 118.272H50.5488C47.6578 118.272 45.3141 115.928 45.3141 113.037V102.568Z" fill="white"/>
<path d="M92.4265 76.3942C92.4265 73.5032 94.7702 71.1595 97.6613 71.1595H113.365C116.256 71.1595 118.6 73.5032 118.6 76.3942V113.037C118.6 115.928 116.256 118.272 113.365 118.272H97.6613C94.7702 118.272 92.4265 115.928 92.4265 113.037V76.3942Z" fill="white"/>
<path d="M92.4265 50.2207C92.4265 47.3296 94.7702 44.986 97.6613 44.986H113.365C116.256 44.986 118.6 47.3296 118.6 50.2207V60.6901C118.6 63.5812 116.256 65.9248 113.365 65.9248H97.6613C94.7702 65.9248 92.4265 63.5812 92.4265 60.6901V50.2207Z" fill="white"/>
<path d="M45.3141 50.2207C45.3141 47.3296 47.6578 44.986 50.5488 44.986H81.9571C84.8482 44.986 87.1918 47.3296 87.1918 50.2207V86.8637C87.1918 89.7547 84.8482 92.0984 81.9571 92.0984H50.5488C47.6578 92.0984 45.3141 89.7547 45.3141 86.8637V50.2207Z" fill="white"/>
<path d="M174.166 114.664V48.5H202.725C207.635 48.5 211.932 49.4692 215.615 51.4076C219.298 53.346 222.163 56.0705 224.209 59.5812C226.255 63.0919 227.278 67.1948 227.278 71.8901C227.278 76.6284 226.223 80.7313 224.112 84.1989C222.023 87.6665 219.083 90.3372 215.292 92.211C211.523 94.0848 207.119 95.0217 202.079 95.0217H185.021V81.0652H198.46C200.571 81.0652 202.369 80.699 203.856 79.9667C205.363 79.2129 206.515 78.1468 207.312 76.7684C208.131 75.3899 208.54 73.7638 208.54 71.8901C208.54 69.9947 208.131 68.3794 207.312 67.044C206.515 65.6872 205.363 64.6533 203.856 63.9426C202.369 63.2103 200.571 62.8442 198.46 62.8442H192.128V114.664H174.166Z" fill="#1B4DFF"/>
<path d="M242.793 114.664H223.409L245.249 48.5H269.802L291.641 114.664H272.257L257.784 66.721H257.267L242.793 114.664ZM239.175 88.5603H275.617V102H239.175V88.5603Z" fill="#1B4DFF"/>
<path d="M356.674 73.3116H338.453C338.324 71.8039 337.98 70.4363 337.42 69.2086C336.881 67.9809 336.127 66.9256 335.158 66.0425C334.21 65.138 333.058 64.4487 331.701 63.9749C330.344 63.4795 328.804 63.2319 327.081 63.2319C324.066 63.2319 321.514 63.9641 319.425 65.4287C317.357 66.8933 315.785 68.9932 314.708 71.7285C313.653 74.4638 313.125 77.7483 313.125 81.5821C313.125 85.6312 313.663 89.0234 314.74 91.7587C315.839 94.4725 317.422 96.5186 319.489 97.897C321.557 99.2539 324.045 99.9323 326.952 99.9323C328.611 99.9323 330.097 99.7277 331.411 99.3185C332.724 98.8877 333.866 98.2739 334.835 97.477C335.804 96.6801 336.59 95.7216 337.193 94.6017C337.818 93.4602 338.238 92.1787 338.453 90.7572L356.674 90.8864C356.459 93.6863 355.673 96.5401 354.316 99.4477C352.959 102.334 351.032 105.004 348.533 107.46C346.056 109.894 342.987 111.853 339.326 113.34C335.664 114.826 331.411 115.569 326.565 115.569C320.491 115.569 315.042 114.266 310.217 111.66C305.414 109.054 301.613 105.22 298.813 100.158C296.035 95.0971 294.646 88.9049 294.646 81.5821C294.646 74.2161 296.067 68.0132 298.91 62.9734C301.753 57.912 305.587 54.089 310.411 51.5045C315.236 48.8984 320.62 47.5954 326.565 47.5954C330.743 47.5954 334.587 48.1661 338.098 49.3077C341.609 50.4492 344.689 52.1183 347.338 54.3152C349.987 56.4905 352.119 59.172 353.735 62.3596C355.35 65.5472 356.33 69.1978 356.674 73.3116Z" fill="#1B4DFF"/>
<path d="M379.968 114.664H360.584L382.423 48.5H406.976L428.815 114.664H409.431L394.958 66.721H394.441L379.968 114.664ZM376.349 88.5603H412.791V102H376.349V88.5603Z" fill="#1B4DFF"/>
<defs>
<linearGradient id="paint0_linear_236_1402" x1="23.3281" y1="60.6899" x2="90.3325" y2="60.6899" gradientUnits="userSpaceOnUse">
<stop stop-color="#81B8EB"/>
<stop offset="1" stop-color="#1B4DFF"/>
</linearGradient>
</defs>
</svg>
